<svg xmlns="http://www.w3.org/2000/svg" width="151" height="46" fill="none"><path fill="#8CB7F5" d="M50.214 32.806h8.889c4.673 0 7.162-2.438 7.162-5.75 0-3.078-2.204-4.937-4.571-5.05v-.202c2.163-.488 3.758-2.022 3.758-4.47 0-3.12-2.316-5.334-6.908-5.334h-8.33v20.806Zm4.399-3.596v-5.527H58.3c2.114 0 3.424 1.22 3.424 2.936 0 1.565-1.067 2.59-3.525 2.59h-3.586Zm0-8.504v-5.15h3.342c1.95 0 3.058 1.005 3.058 2.51 0 1.645-1.341 2.64-3.14 2.64h-3.26ZM68.518 32.806h4.328v-8.828c0-1.92 1.402-3.241 3.312-3.241.6 0 1.422.102 1.829.234v-3.84a6.498 6.498 0 0 0-1.362-.153c-1.747 0-3.18 1.016-3.749 2.946h-.162v-2.723h-4.196v15.605ZM83.699 33.1c2.306 0 3.8-1.005 4.561-2.458h.122v2.164h4.105V22.281c0-3.718-3.15-5.283-6.624-5.283-3.739 0-6.198 1.788-6.797 4.633l4.003.325c.294-1.036 1.219-1.798 2.773-1.798 1.474 0 2.317.741 2.317 2.022v.06c0 1.006-1.067 1.138-3.78 1.402-3.088.285-5.862 1.321-5.862 4.806 0 3.088 2.205 4.653 5.182 4.653Zm1.24-2.986c-1.332 0-2.287-.62-2.287-1.808 0-1.22 1.006-1.819 2.53-2.032.945-.132 2.489-.356 3.007-.701v1.656c0 1.635-1.351 2.885-3.25 2.885ZM99.644 23.785c.01-2.012 1.209-3.19 2.956-3.19 1.737 0 2.784 1.138 2.774 3.047v9.164h4.327V22.87c0-3.637-2.133-5.872-5.384-5.872-2.316 0-3.993 1.138-4.693 2.957h-.183v-2.753h-4.125v15.604h4.328v-9.021ZM118.334 33.06c2.52 0 3.83-1.453 4.43-2.753h.183v2.5h4.267V12h-4.318v7.823h-.132c-.579-1.27-1.829-2.825-4.44-2.825-3.423 0-6.319 2.662-6.319 8.026 0 5.222 2.774 8.036 6.329 8.036Zm1.372-3.444c-2.123 0-3.282-1.89-3.282-4.612 0-2.703 1.138-4.562 3.282-4.562 2.103 0 3.281 1.778 3.281 4.562 0 2.784-1.198 4.612-3.281 4.612Z"/><g fill-rule="evenodd" clip-rule="evenodd" opacity=".8"><path fill="#0D6EFD" fill-opacity=".2" d="M14.467 2.913h22.718c3.764 0 6.815 3.373 6.815 7.533v25.108c0 4.16-3.051 7.533-6.815 7.533H14.467c-3.764 0-6.815-3.373-6.815-7.533V10.446c0-4.16 3.051-7.533 6.815-7.533Z"/><path fill="#0D6EFD" d="M8.13 2.913h23.913c3.962 0 7.174 3.373 7.174 7.533v25.108c0 4.16-3.212 7.533-7.173 7.533H8.13c-3.962 0-7.173-3.373-7.173-7.533V10.446c0-4.16 3.211-7.533 7.173-7.533Z"/><g fill="#fff" opacity=".7"><path d="M15.29 19.356h-.98c-.051 0-.126.07-.129.117l-.722 11.675 13.496-.003-.73-11.672c-.003-.045-.08-.117-.128-.117h-.98v1.965a.983.983 0 1 1-1.966 0v-1.965h-5.896v1.965a.983.983 0 0 1-1.965 0v-1.965Z" opacity=".3"/><path d="M20.203 12.478a4.915 4.915 0 0 1 4.913 4.911l.98.002c1.087 0 2.023.88 2.09 1.96l.738 11.803a1.819 1.819 0 0 1-1.837 1.96H13.32a1.82 1.82 0 0 1-1.838-1.96l.738-11.803c.067-1.082 1.001-1.96 2.09-1.96h.98a4.915 4.915 0 0 1 4.913-4.913Zm2.948 4.914a2.95 2.95 0 0 0-2.948-2.948 2.95 2.95 0 0 0-2.948 2.945l5.896.003Zm-7.86 1.965h-.981c-.05 0-.126.07-.129.116l-.722 11.675 13.496-.003-.73-11.672c-.003-.044-.08-.116-.128-.116h-.98v1.965a.983.983 0 1 1-1.966 0v-1.965h-5.896v1.965a.983.983 0 1 1-1.965 0v-1.965Z"/></g></g></svg>